HIERARCHY
ROOT Hips
{
    OFFSET 0.000000 0.000000 0.000000
    CHANNELS 6 Xposition Yposition Zposition Zrotation Xrotation Yrotation
    JOINT Spine
    {
        OFFSET -0.000000 7.925200 0.000000
        CHANNELS 3 Zrotation Xrotation Yrotation
        JOINT Spine1
        {
            OFFSET -0.000000 23.364719 0.000000
            CHANNELS 3 Zrotation Xrotation Yrotation
            JOINT Neck
            {
                OFFSET -0.000000 23.268766 2.115342
                CHANNELS 3 Zrotation Xrotation Yrotation
                JOINT Head
                {
                    OFFSET -0.000000 13.530829 -1.932976
                    CHANNELS 3 Zrotation Xrotation Yrotation
                    End Site
                    {
                        OFFSET -0.000000 24.162195 0.000000
                    }
                }
            }
            JOINT LeftShoulder
            {
                OFFSET 3.858291 22.792089 -0.033814
                CHANNELS 3 Zrotation Xrotation Yrotation
                JOINT LeftArm
                {
                    OFFSET 7.057024 0.000000 0.000000
                    CHANNELS 3 Zrotation Xrotation Yrotation
                    JOINT LeftForeArm
                    {
                        OFFSET 34.734173 0.000000 0.000000
                        CHANNELS 3 Zrotation Xrotation Yrotation
                        JOINT LeftHand
                        {
                            OFFSET 23.943203 0.000000 0.000000
                            CHANNELS 3 Zrotation Xrotation Yrotation
                            End Site
                            {
                                OFFSET 14.497317 0.000000 0.000000
                            }
                        }
                    }
                }
            }
            JOINT RightShoulder
            {
                OFFSET -3.868823 22.792089 -0.033814
                CHANNELS 3 Zrotation Xrotation Yrotation
                JOINT RightArm
                {
                    OFFSET -7.057024 0.000000 0.000000
                    CHANNELS 3 Zrotation Xrotation Yrotation
                    JOINT RightForeArm
                    {
                        OFFSET -34.734173 0.000000 0.000000
                        CHANNELS 3 Zrotation Xrotation Yrotation
                        JOINT RightHand
                        {
                            OFFSET -23.943203 0.000000 0.000000
                            CHANNELS 3 Zrotation Xrotation Yrotation
                            End Site
                            {
                                OFFSET -14.497317 0.000000 0.000000
                            }
                        }
                    }
                }
            }
        }
    }
    JOINT LeftUpLeg
    {
        OFFSET 9.664878 0.000000 0.000000
        CHANNELS 3 Zrotation Xrotation Yrotation
        JOINT LeftLeg
        {
            OFFSET -0.000000 -38.728706 0.000000
            CHANNELS 3 Zrotation Xrotation Yrotation
            JOINT LeftFoot
            {
                OFFSET -0.000000 -40.242161 0.000000
                CHANNELS 3 Zrotation Xrotation Yrotation
                JOINT LeftToeBase
                {
                    OFFSET -0.000000 -6.282171 14.497317
                    CHANNELS 3 Zrotation Xrotation Yrotation
                    End Site
                    {
                        OFFSET -0.000000 0.000000 3.865951
                    }
                }
            }
        }
    }
    JOINT RightUpLeg
    {
        OFFSET -9.664878 0.000000 0.000000
        CHANNELS 3 Zrotation Xrotation Yrotation
        JOINT RightLeg
        {
            OFFSET -0.000000 -38.728706 0.000000
            CHANNELS 3 Zrotation Xrotation Yrotation
            JOINT RightFoot
            {
                OFFSET -0.000000 -40.242161 0.000000
                CHANNELS 3 Zrotation Xrotation Yrotation
                JOINT RightToeBase
                {
                    OFFSET -0.000000 -6.282171 14.497317
                    CHANNELS 3 Zrotation Xrotation Yrotation
                    End Site
                    {
                        OFFSET -0.000000 0.000000 3.865951
                    }
                }
            }
        }
    }
}
MOTION
Frames:    9
Frame Time:    0.008333
36.018528    81.904671    53.011261    -12.988319    -3.052038    97.882111    0.849956    6.238734    -6.044552    -0.852420    4.608043    -5.963964    6.127848    4.728338    10.457443    -6.563397    -12.133859    8.625437    3.219277    5.365644    -2.103361    1.675153    62.437695    -61.549732    16.214155    -12.917433    -28.390791    -7.933219    -7.926666    -13.570245    3.880484    4.104780    7.386711    14.772227    45.715824    43.286770    -4.933254    -12.603590    25.047712    11.128009    -10.725496    8.413135    16.857498    -40.518169    10.416454    -7.215179    48.644714    2.142779    -3.029251    -14.760033    6.862604    0.000000    0.000000    0.000000    9.665648    -39.379650    3.564621    -4.943390    49.133656    3.632631    -1.485018    -17.088020    -4.748077    0.000000    0.000000    0.000000    
36.159889    81.589745    52.867245    -12.729548    -2.827325    98.511993    1.239223    6.431273    -6.384040    -0.927579    4.509206    -6.277915    5.928737    4.722621    10.479511    -6.770137    -12.112949    8.620132    3.213060    5.523654    -2.063266    1.990531    61.732201    -61.790691    16.679218    -12.197636    -27.201546    -8.381578    -7.182837    -13.896517    3.897007    4.150282    7.547414    14.784927    44.480534    43.082592    -4.838748    -12.371893    24.333521    11.054898    -10.542975    8.479548    16.935963    -41.538002    10.123312    -7.514122    50.698105    1.703283    -4.129318    -14.289934    5.496668    0.000000    0.000000    0.000000    9.216876    -39.660603    3.698028    -5.194750    50.432148    4.218755    -1.115629    -17.757753    -5.288446    0.000000    0.000000    0.000000    
36.295395    81.304977    52.712429    -12.535978    -2.636074    99.157295    1.271771    6.244758    -6.363893    -0.517000    5.077306    -6.271614    6.093380    4.233179    10.305444    -7.352414    -11.869098    8.267175    3.643202    5.406449    -2.554414    1.274594    60.647163    -61.730965    16.946329    -11.577838    -26.141722    -8.581858    -6.642693    -13.725806    3.880913    3.660185    6.849353    14.322784    43.550694    43.044140    -4.875566    -12.276087    23.981960    11.790554    -10.356551    8.904343    17.059669    -42.676121    9.571703    -8.099075    52.687019    1.798605    -5.609393    -13.504689    3.708614    0.000000    0.000000    0.000000    8.697261    -39.994968    3.653414    -5.322532    51.689587    4.587314    -0.866314    -18.275362    -5.710431    0.000000    0.000000    0.000000    
36.489983    81.027794    52.548504    -12.217038    -2.455704    99.856857    1.692969    6.232852    -6.569707    -0.550388    5.250595    -6.452296    5.976080    4.237740    10.188013    -7.592858    -11.934299    8.095589    3.710224    5.469868    -2.598948    0.222444    59.426235    -60.855953    17.084604    -10.718571    -25.422094    -8.615291    -5.851217    -13.691803    3.834503    3.381507    6.682784    14.510091    42.385422    42.637566    -4.809447    -12.014847    23.521446    12.456463    -10.010619    9.505756    17.386629    -43.715328    8.959616    -9.030025    54.684391    1.792233    -6.646826    -12.458800    1.856502    0.000000    0.000000    0.000000    8.125457    -40.058163    3.415635    -5.370579    52.813328    5.080729    -0.600764    -18.988972    -6.324094    0.000000    0.000000    0.000000    
36.667423    80.800468    52.366322    -12.029493    -2.223819    100.492981    1.924978    6.150206    -6.721580    -0.356900    5.254729    -6.601781    5.819616    4.238590    10.093716    -7.850107    -11.767002    7.963367    3.912108    5.501653    -2.839855    -1.809697    58.447594    -59.235451    17.479456    -10.156590    -24.877178    -8.723026    -5.262843    -13.737677    3.711297    3.097182    6.512456    14.716062    41.198822    42.082588    -4.537245    -11.954945    23.374563    12.228321    -10.041641    9.406453    17.659792    -44.768604    8.630605    -9.678680    56.383999    2.174587    -8.097415    -10.948514    -0.600059    0.000000    0.000000    0.000000    7.429032    -40.137909    3.031847    -5.319931    53.746540    5.051291    -0.627057    -19.672010    -6.549197    0.000000    0.000000    0.000000    
36.895863    80.602081    52.185589    -11.745312    -2.031736    101.098328    2.155859    6.027088    -6.841699    -0.074801    5.366765    -6.724690    5.930090    4.070747    10.075119    -8.561527    -11.193337    7.792423    3.955352    5.528250    -2.964685    -3.618734    57.401810    -57.639759    17.723881    -9.962473    -24.582783    -8.296712    -5.108992    -13.762938    3.515291    2.994857    6.329326    14.796575    39.779266    41.634892    -4.316232    -12.014416    23.415142    11.394522    -10.272220    8.809645    18.130081    -45.705559    8.371496    -10.030361    58.129997    1.650731    -9.744463    -9.310311    -2.922122    0.000000    0.000000    0.000000    6.732079    -39.920544    2.409295    -5.285491    54.360954    4.785368    -0.640582    -20.389854    -6.433360    0.000000    0.000000    0.000000    
37.123264    80.456673    52.003288    -11.521783    -1.830966    101.552116    2.436271    6.001854    -6.883936    0.006487    5.125270    -6.756493    5.851195    4.106272    9.977987    -8.752249    -10.711325    7.692402    4.046643    5.696916    -3.039880    -5.805794    56.212753    -55.673256    17.732304    -10.062417    -24.612854    -7.802044    -5.283639    -13.464036    3.635298    2.860559    6.075796    14.678979    38.567852    41.164471    -3.954506    -12.021017    23.476168    11.032360    -10.374977    8.844048    18.834473    -46.577900    8.881168    -9.927995    59.699810    0.921703    -11.520782    -7.448930    -5.277923    0.000000    0.000000    0.000000    6.095365    -39.683922    1.872912    -5.237690    54.851135    4.955038    -0.807369    -20.973907    -6.738394    0.000000    0.000000    0.000000    
37.381477    80.327927    51.816673    -11.313159    -1.650861    101.972740    2.736710    5.763163    -6.991256    0.245575    5.098182    -6.864412    5.600315    4.035672    9.986173    -9.165842    -10.144988    7.673254    3.777609    5.686221    -2.793295    -7.571436    55.239235    -53.640797    17.807697    -10.712051    -25.130751    -7.524712    -5.883331    -13.295290    3.185130    2.731263    5.943023    15.089003    36.891289    40.757736    -3.872945    -12.061933    23.446602    12.286613    -10.276514    9.415357    19.658699    -47.311592    8.997554    -10.202970    60.967545    0.602503    -13.496791    -5.558108    -7.600289    0.000000    0.000000    0.000000    5.407848    -39.358963    1.206238    -5.158060    55.182903    4.956479    -0.892840    -21.601301    -6.721859    0.000000    0.000000    0.000000    
37.624886    80.273041    51.558258    -11.181575    -1.214695    102.145592    2.846045    5.648901    -6.922127    0.250302    4.818514    -6.792210    5.423611    4.117632    9.899983    -9.431808    -9.677477    7.583988    3.722802    5.803962    -2.556072    -9.435974    54.147743    -51.707157    17.649872    -11.628744    -25.734240    -7.160140    -6.797850    -13.206838    3.069228    2.561454    5.682470    14.883335    35.730507    40.476913    -3.653530    -12.040309    23.756514    12.258389    -10.298931    9.347841    20.214685    -47.869862    9.309855    -10.075316    62.096546    -0.417444    -15.895130    -3.788474    -8.593902    0.000000    0.000000    0.000000    4.469988    -39.077168    0.845593    -4.741532    55.508736    4.614470    -0.450469    -22.029745    -6.440078    0.000000    0.000000    0.000000    
